<svg id="visual" viewBox="0 0 960 540" width="960" height="540" xmlns="http://www.w3.org/2000/svg" xmlns:xlink="http://www.w3.org/1999/xlink" version="1.1"><rect x="0" y="0" width="960" height="540" fill="#173849"></rect><path d="M0 498L12.3 497C24.7 496 49.3 494 74 484C98.7 474 123.3 456 148 455.5C172.7 455 197.3 472 221.8 471.7C246.3 471.3 270.7 453.7 295.2 452.5C319.7 451.3 344.3 466.7 369 475C393.7 483.3 418.3 484.7 443 483.3C467.7 482 492.3 478 517 469.7C541.7 461.3 566.3 448.7 591 450.3C615.7 452 640.3 468 664.8 475.8C689.3 483.7 713.7 483.3 738.2 476.8C762.7 470.3 787.3 457.7 812 450C836.7 442.3 861.3 439.7 886 443.2C910.7 446.7 935.3 456.3 947.7 461.2L960 466L960 541L947.7 541C935.3 541 910.7 541 886 541C861.3 541 836.7 541 812 541C787.3 541 762.7 541 738.2 541C713.7 541 689.3 541 664.8 541C640.3 541 615.7 541 591 541C566.3 541 541.7 541 517 541C492.3 541 467.7 541 443 541C418.3 541 393.7 541 369 541C344.3 541 319.7 541 295.2 541C270.7 541 246.3 541 221.8 541C197.3 541 172.7 541 148 541C123.3 541 98.7 541 74 541C49.3 541 24.7 541 12.3 541L0 541Z" fill="#ffffff" stroke-linecap="round" stroke-linejoin="miter"></path></svg>