<svg id="visual" viewBox="0 0 900 450" width="900" height="450" xmlns="http://www.w3.org/2000/svg" xmlns:xlink="http://www.w3.org/1999/xlink" version="1.1"><rect x="0" y="0" width="900" height="450" fill="#042b3f"></rect><path d="M0 390L16.7 395.7C33.3 401.3 66.7 412.7 100 411.3C133.3 410 166.7 396 200 389.3C233.3 382.7 266.7 383.3 300 384.5C333.3 385.7 366.7 387.3 400 394C433.3 400.7 466.7 412.3 500 418.5C533.3 424.7 566.7 425.3 600 418.5C633.3 411.7 666.7 397.3 700 393.2C733.3 389 766.7 395 800 394.8C833.3 394.7 866.7 388.3 883.3 385.2L900 382L900 451L883.3 451C866.7 451 833.3 451 800 451C766.7 451 733.3 451 700 451C666.7 451 633.3 451 600 451C566.7 451 533.3 451 500 451C466.7 451 433.3 451 400 451C366.7 451 333.3 451 300 451C266.7 451 233.3 451 200 451C166.7 451 133.3 451 100 451C66.7 451 33.3 451 16.7 451L0 451Z" fill="#ffffff" stroke-linecap="round" stroke-linejoin="miter"></path></svg>