<svg id="visual" viewBox="0 0 900 450" width="900" height="450" xmlns="http://www.w3.org/2000/svg" xmlns:xlink="http://www.w3.org/1999/xlink" version="1.1"><rect x="0" y="0" width="900" height="450" fill="#000000"></rect><path d="M0 391L16.7 396.2C33.3 401.3 66.7 411.7 100 417.8C133.3 424 166.7 426 200 419C233.3 412 266.7 396 300 390.5C333.3 385 366.7 390 400 394.7C433.3 399.3 466.7 403.7 500 411.7C533.3 419.7 566.7 431.3 600 427C633.3 422.7 666.7 402.3 700 397.7C733.3 393 766.7 404 800 410.8C833.3 417.7 866.7 420.3 883.3 421.7L900 423L900 451L883.3 451C866.7 451 833.3 451 800 451C766.7 451 733.3 451 700 451C666.7 451 633.3 451 600 451C566.7 451 533.3 451 500 451C466.7 451 433.3 451 400 451C366.7 451 333.3 451 300 451C266.7 451 233.3 451 200 451C166.7 451 133.3 451 100 451C66.7 451 33.3 451 16.7 451L0 451Z" fill="#f2f2f3" stroke-linecap="round" stroke-linejoin="miter"></path></svg>