<svg id="visual" viewBox="0 0 900 450" width="900" height="450" xmlns="http://www.w3.org/2000/svg" xmlns:xlink="http://www.w3.org/1999/xlink" version="1.1"><rect x="0" y="0" width="900" height="450" fill="#0b1c25"></rect><path d="M0 415L12.5 417.8C25 420.7 50 426.3 75 422.7C100 419 125 406 150 406C175 406 200 419 225 419.2C250 419.3 275 406.7 300 407C325 407.3 350 420.7 375 417.3C400 414 425 394 450 389C475 384 500 394 525 403.7C550 413.3 575 422.7 600 424.5C625 426.3 650 420.7 675 417.3C700 414 725 413 750 414.3C775 415.7 800 419.3 825 417.8C850 416.3 875 409.7 887.5 406.3L900 403L900 451L887.5 451C875 451 850 451 825 451C800 451 775 451 750 451C725 451 700 451 675 451C650 451 625 451 600 451C575 451 550 451 525 451C500 451 475 451 450 451C425 451 400 451 375 451C350 451 325 451 300 451C275 451 250 451 225 451C200 451 175 451 150 451C125 451 100 451 75 451C50 451 25 451 12.5 451L0 451Z" fill="#ffffff" stroke-linecap="round" stroke-linejoin="miter"></path></svg>