<svg id="visual" viewBox="0 0 900 450" width="900" height="450" xmlns="http://www.w3.org/2000/svg" xmlns:xlink="http://www.w3.org/1999/xlink" version="1.1"><rect x="0" y="0" width="900" height="450" fill="#173849"></rect><path d="M0 403L11.5 402C23 401 46 399 69 388C92 377 115 357 138.2 356.3C161.3 355.7 184.7 374.3 207.8 373.8C231 373.3 254 353.7 277 352.5C300 351.3 323 368.7 346 378C369 387.3 392 388.7 415.2 387.2C438.3 385.7 461.7 381.3 484.8 372C508 362.7 531 348.3 554 350.2C577 352 600 370 623 378.7C646 387.3 669 386.7 692.2 379.3C715.3 372 738.7 358 761.8 349.5C785 341 808 338 831 342C854 346 877 357 888.5 362.5L900 368L900 451L888.5 451C877 451 854 451 831 451C808 451 785 451 761.8 451C738.7 451 715.3 451 692.2 451C669 451 646 451 623 451C600 451 577 451 554 451C531 451 508 451 484.8 451C461.7 451 438.3 451 415.2 451C392 451 369 451 346 451C323 451 300 451 277 451C254 451 231 451 207.8 451C184.7 451 161.3 451 138.2 451C115 451 92 451 69 451C46 451 23 451 11.5 451L0 451Z" fill="#ffffff" stroke-linecap="round" stroke-linejoin="miter"></path></svg>