<svg id="visual" viewBox="0 0 900 450" width="900" height="450" xmlns="http://www.w3.org/2000/svg" xmlns:xlink="http://www.w3.org/1999/xlink" version="1.1"><rect x="0" y="0" width="900" height="450" fill="#020e14"></rect><path d="M0 427L12.5 419.5C25 412 50 397 75 392.3C100 387.7 125 393.3 150 396.7C175 400 200 401 225 403C250 405 275 408 300 407.8C325 407.7 350 404.3 375 398.7C400 393 425 385 450 385.2C475 385.3 500 393.7 525 401C550 408.3 575 414.7 600 416.2C625 417.7 650 414.3 675 410C700 405.7 725 400.3 750 400.8C775 401.3 800 407.7 825 411.5C850 415.3 875 416.7 887.5 417.3L900 418L900 451L887.5 451C875 451 850 451 825 451C800 451 775 451 750 451C725 451 700 451 675 451C650 451 625 451 600 451C575 451 550 451 525 451C500 451 475 451 450 451C425 451 400 451 375 451C350 451 325 451 300 451C275 451 250 451 225 451C200 451 175 451 150 451C125 451 100 451 75 451C50 451 25 451 12.5 451L0 451Z" fill="#ffffff" stroke-linecap="round" stroke-linejoin="miter"></path></svg>