<svg id="visual" viewBox="0 0 900 450" width="900" height="450" xmlns="http://www.w3.org/2000/svg" xmlns:xlink="http://www.w3.org/1999/xlink" version="1.1"><rect x="0" y="0" width="900" height="450" fill="#0c2029"></rect><path d="M0 403L8.3 401C16.7 399 33.3 395 50 397C66.7 399 83.3 407 100 406.7C116.7 406.3 133.3 397.7 150 393.7C166.7 389.7 183.3 390.3 200 393.8C216.7 397.3 233.3 403.7 250 409C266.7 414.3 283.3 418.7 300 415.8C316.7 413 333.3 403 350 396.2C366.7 389.3 383.3 385.7 400 384C416.7 382.3 433.3 382.7 450 383.8C466.7 385 483.3 387 500 389.3C516.7 391.7 533.3 394.3 550 399.5C566.7 404.7 583.3 412.3 600 414.7C616.7 417 633.3 414 650 410.7C666.7 407.3 683.3 403.7 700 398.8C716.7 394 733.3 388 750 386.7C766.7 385.3 783.3 388.7 800 392.8C816.7 397 833.3 402 850 404.7C866.7 407.3 883.3 407.7 891.7 407.8L900 408L900 451L891.7 451C883.3 451 866.7 451 850 451C833.3 451 816.7 451 800 451C783.3 451 766.7 451 750 451C733.3 451 716.7 451 700 451C683.3 451 666.7 451 650 451C633.3 451 616.7 451 600 451C583.3 451 566.7 451 550 451C533.3 451 516.7 451 500 451C483.3 451 466.7 451 450 451C433.3 451 416.7 451 400 451C383.3 451 366.7 451 350 451C333.3 451 316.7 451 300 451C283.3 451 266.7 451 250 451C233.3 451 216.7 451 200 451C183.3 451 166.7 451 150 451C133.3 451 116.7 451 100 451C83.3 451 66.7 451 50 451C33.3 451 16.7 451 8.3 451L0 451Z" fill="#ffffff" stroke-linecap="round" stroke-linejoin="miter"></path></svg>