<svg id="visual" viewBox="0 0 900 450" width="900" height="450" xmlns="http://www.w3.org/2000/svg" xmlns:xlink="http://www.w3.org/1999/xlink" version="1.1"><rect x="0" y="0" width="900" height="450" fill="#000000"></rect><path d="M0 340L13.7 349.5C27.3 359 54.7 378 82 382.5C109.3 387 136.7 377 163.8 366.2C191 355.3 218 343.7 245.2 337.2C272.3 330.7 299.7 329.3 327 317.5C354.3 305.7 381.7 283.3 409 272.2C436.3 261 463.7 261 491 276.3C518.3 291.7 545.7 322.3 573 324C600.3 325.7 627.7 298.3 654.8 295.5C682 292.7 709 314.3 736.2 326.3C763.3 338.3 790.7 340.7 818 333C845.3 325.3 872.7 307.7 886.3 298.8L900 290L900 451L886.3 451C872.7 451 845.3 451 818 451C790.7 451 763.3 451 736.2 451C709 451 682 451 654.8 451C627.7 451 600.3 451 573 451C545.7 451 518.3 451 491 451C463.7 451 436.3 451 409 451C381.7 451 354.3 451 327 451C299.7 451 272.3 451 245.2 451C218 451 191 451 163.8 451C136.7 451 109.3 451 82 451C54.7 451 27.3 451 13.7 451L0 451Z" fill="#f0f3f8" stroke-linecap="round" stroke-linejoin="miter"></path></svg>