<svg id="visual" viewBox="0 0 900 450" width="900" height="450" xmlns="http://www.w3.org/2000/svg" xmlns:xlink="http://www.w3.org/1999/xlink" version="1.1"><rect x="0" y="0" width="900" height="450" fill="#0f1b20"></rect><path d="M0 407L12.5 403.2C25 399.3 50 391.7 75 394.2C100 396.7 125 409.3 150 411.3C175 413.3 200 404.7 225 402.8C250 401 275 406 300 404.5C325 403 350 395 375 393.8C400 392.7 425 398.3 450 404C475 409.7 500 415.3 525 416.8C550 418.3 575 415.7 600 414C625 412.3 650 411.7 675 406.5C700 401.3 725 391.7 750 393C775 394.3 800 406.7 825 411.3C850 416 875 413 887.5 411.5L900 410L900 451L887.5 451C875 451 850 451 825 451C800 451 775 451 750 451C725 451 700 451 675 451C650 451 625 451 600 451C575 451 550 451 525 451C500 451 475 451 450 451C425 451 400 451 375 451C350 451 325 451 300 451C275 451 250 451 225 451C200 451 175 451 150 451C125 451 100 451 75 451C50 451 25 451 12.5 451L0 451Z" fill="#fbfdff" stroke-linecap="round" stroke-linejoin="miter"></path></svg>