<?xml version="1.0" encoding="UTF-8"?>
<svg version="1.1" xmlns="http://www.w3.org/2000/svg" width="500" height="500">
<path d="M0 0 C165 0 330 0 500 0 C500 165 500 330 500 500 C335 500 170 500 0 500 C0 335 0 170 0 0 Z " fill="#FEFEFE" transform="translate(0,0)"/>
<path d="M0 0 C4.02410226 1.34136742 4.47114206 3.05021965 6.5546875 6.703125 C6.89213989 7.28784073 7.22959229 7.87255646 7.57727051 8.47499084 C8.30411096 9.73613789 9.02697065 10.99958576 9.74627686 12.26504517 C11.65607334 15.62358334 13.59544319 18.96500328 15.53125 22.30859375 C16.1102858 23.31136604 16.1102858 23.31136604 16.70101929 24.33439636 C19.82153087 29.72700215 23.06037227 35.03690165 26.375 40.3125 C31.86885951 49.08550416 37.16748537 57.96659153 42.4375 66.875 C49.60045078 78.97986567 56.84541273 91.02940381 64.18408203 103.02880859 C70.48351893 113.33590016 76.75195948 123.66168627 83 134 C83.66644531 135.10085937 84.33289063 136.20171875 85.01953125 137.3359375 C86.87479151 140.40696952 88.72038832 143.48356764 90.5625 146.5625 C91.39406616 147.93643921 91.39406616 147.93643921 92.24243164 149.33813477 C92.74121826 150.17658936 93.24000488 151.01504395 93.75390625 151.87890625 C94.40854858 152.97054077 94.40854858 152.97054077 95.07641602 154.08422852 C96 156 96 156 96 159 C95.25786255 159.41958984 95.25786255 159.41958984 94.50073242 159.84765625 C79.9757771 168.07300935 65.59729953 176.53461725 51.25244141 185.06884766 C48.23847978 186.85840151 45.2202714 188.64041833 42.19921875 190.41796875 C41.28970459 190.95349365 40.38019043 191.48901855 39.44311523 192.04077148 C37.66366559 193.08753503 35.88324563 194.13265101 34.10180664 195.17602539 C29.26066376 198.02430772 24.47808766 200.944988 19.734375 203.953125 C18.69313477 204.60716309 17.65189453 205.26120117 16.57910156 205.93505859 C14.57192318 207.199651 12.57334241 208.47802592 10.58496094 209.77197266 C9.68036133 210.33964355 8.77576172 210.90731445 7.84375 211.4921875 C7.05162109 212.00120605 6.25949219 212.51022461 5.44335938 213.03466797 C2.18537057 214.321847 0.35226787 213.92726918 -3 213 C-5.56347656 211.74755859 -5.56347656 211.74755859 -8.140625 210.1484375 C-9.11555908 209.55200439 -10.09049316 208.95557129 -11.0949707 208.34106445 C-12.13613037 207.69226318 -13.17729004 207.04346191 -14.25 206.375 C-16.49748127 204.99925099 -18.74602964 203.62541046 -20.99609375 202.25390625 C-21.57268234 201.90126205 -22.14927094 201.54861786 -22.74333191 201.18528748 C-28.86816478 197.44827359 -35.08550257 193.87614311 -41.3125 190.3125 C-51.45115692 184.493943 -61.50650921 178.55386219 -71.50878906 172.50439453 C-76.08277608 169.74225145 -80.66719755 166.99748251 -85.25 164.25 C-86.94274949 163.2344436 -88.63546186 162.21882532 -90.328125 161.203125 C-91.0387207 160.77676758 -91.74931641 160.35041016 -92.48144531 159.91113281 C-92.98256836 159.61045898 -93.48369141 159.30978516 -94 159 C-92.62726264 154.33896481 -90.64347907 150.35655353 -88.140625 146.22265625 C-87.75991852 145.58357834 -87.37921204 144.94450043 -86.98696899 144.28605652 C-85.74700264 142.20807369 -84.49870363 140.13524209 -83.25 138.0625 C-82.38126717 136.61124556 -81.51294418 135.15974572 -80.64501953 133.70800781 C-74.08520547 122.74932967 -67.45779573 111.83171536 -60.79394531 100.93603516 C-57.43701736 95.44196663 -54.09265682 89.94025831 -50.75 84.4375 C-50.39548767 83.8539978 -50.04097534 83.27049561 -49.67572021 82.66931152 C-43.70707746 72.84238082 -37.78384349 62.98867154 -31.87692261 53.12454224 C-25.54425732 42.55033727 -19.16290458 32.00654141 -12.74414062 21.484375 C-8.41128132 14.37008574 -4.17082908 7.21042105 0 0 Z " fill="#353535" transform="translate(249,95)"/>
<path d="M0 0 C9.47800299 5.39042773 18.91164516 10.85124557 28.3125 16.375 C29.59640125 17.12863916 30.88033722 17.88221917 32.16430664 18.63574219 C35.77680405 20.75614164 39.38844915 22.87798875 43 25 C44.62759909 25.95573781 46.25520243 26.91146839 47.8828125 27.8671875 C55.74092898 32.48367032 63.5897691 37.11588969 71.4375 41.75 C72.33782959 42.28141602 73.23815918 42.81283203 74.16577148 43.36035156 C75.03790283 43.8756543 75.91003418 44.39095703 76.80859375 44.921875 C77.66565918 45.42396484 78.52272461 45.92605469 79.40576172 46.44335938 C81.19319716 47.51588792 82.95972716 48.62377938 84.70751953 49.75976562 C86.01438721 50.59797852 86.01438721 50.59797852 87.34765625 51.453125 C88.12246338 51.96520508 88.89727051 52.47728516 89.69555664 53.00488281 C92.6748897 54.29143452 93.94001476 54.02338313 97 53 C98.97531681 51.99841129 100.91026233 50.9155111 102.8125 49.78125 C103.64929291 49.2866201 103.64929291 49.2866201 104.50299072 48.78199768 C106.33932849 47.6945861 108.16954668 46.59728278 110 45.5 C111.28958888 44.73418607 112.57963579 43.96914296 113.87011719 43.20483398 C116.56036554 41.6107071 119.24859452 40.01324977 121.93554688 38.41357422 C127.74042787 34.96156843 133.57120833 31.55388037 139.40106201 28.14428711 C142.4327169 26.3705093 145.46242392 24.593412 148.4921875 22.81640625 C149.61077148 22.16043457 150.72935547 21.50446289 151.88183594 20.82861328 C153.42532715 19.92344971 153.42532715 19.92344971 155 19 C155.88204102 18.4829248 156.76408203 17.96584961 157.67285156 17.43310547 C159.90737819 16.12288099 162.1413571 14.81173035 164.375 13.5 C165.3501355 12.9280188 165.3501355 12.9280188 166.3449707 12.34448242 C169.67372862 10.38706846 172.98654473 8.40628799 176.28515625 6.3984375 C177.33147217 5.76325195 177.33147217 5.76325195 178.39892578 5.11523438 C179.72137701 4.31067722 181.04151763 3.502305 182.35888672 2.68945312 C186.77884862 0 186.77884862 0 189 0 C187.73693524 2.6694199 186.36865325 4.99115293 184.56640625 7.328125 C184.08824463 7.95444824 183.61008301 8.58077148 183.11743164 9.22607422 C182.34774048 10.22791748 182.34774048 10.22791748 181.5625 11.25 C177.42144788 16.70206351 173.40816842 22.21068337 169.5625 27.875 C165.69456988 33.56863784 161.73476674 39.18235075 157.6875 44.75 C153.05772324 51.12102484 148.50219427 57.53818842 144 64 C139.03570853 71.12336427 133.99611018 78.18540545 128.89453125 85.2109375 C124.27340435 91.58876398 119.75777949 98.0371664 115.2590332 104.50170898 C110.59727389 111.18650827 105.83496614 117.79431759 100.99804688 124.35351562 C100.23137695 125.40249023 100.23137695 125.40249023 99.44921875 126.47265625 C98.77379028 127.38930054 98.77379028 127.38930054 98.0847168 128.32446289 C96.81877856 130.12683052 96.81877856 130.12683052 96 133 C93.27948806 132.66651789 92.25320647 132.32342907 90.53515625 130.12890625 C90.04917969 129.28199219 89.56320313 128.43507813 89.0625 127.5625 C85.88115113 122.30783617 82.43419718 117.33590142 78.8125 112.375 C74.49600235 106.44763771 70.21429172 100.50051867 66 94.5 C61.91997259 88.69584714 57.79132155 82.92999621 53.625 77.1875 C48.41302352 70.00072188 43.30691995 62.74496919 38.23095703 55.46166992 C33.85657552 49.19584415 29.40096725 42.99356248 24.90991211 36.81103516 C20.1401527 30.2297998 15.47785148 23.57575644 10.84375 16.8984375 C7.69874254 12.37795397 4.48018778 7.94996265 1.08178711 3.61572266 C0 2 0 2 0 0 Z " fill="#8C8C8C" transform="translate(156,272)"/>
<path d="M0 0 C0.99 0.33 1.98 0.66 3 1 C2.67 38.62 2.34 76.24 2 115 C-1.3 116.32 -4.6 117.64 -8 119 C-13.92678192 121.50751377 -13.92678192 121.50751377 -19.5625 124.5625 C-22.24111086 126.14219358 -24.90036573 127.13073224 -27.81640625 128.18359375 C-32.56101269 129.95751637 -37.23409307 131.92322748 -41.5625 134.5625 C-44.24111086 136.14219358 -46.90036573 137.13073224 -49.81640625 138.18359375 C-54.56101269 139.95751637 -59.23409307 141.92322748 -63.5625 144.5625 C-66.24471146 146.14431701 -68.9079406 147.13359886 -71.828125 148.1875 C-77.1882892 150.19274128 -82.34646475 152.644642 -87.4375 155.25 C-91 157 -91 157 -93 157 C-92.33300429 152.99987 -90.30029554 149.83387236 -88.23828125 146.41796875 C-87.66509911 145.45510704 -87.66509911 145.45510704 -87.08033752 144.47279358 C-85.82942882 142.37463993 -84.57114278 140.28102171 -83.3125 138.1875 C-82.43928374 136.72708657 -81.56640233 135.26647287 -80.69384766 133.80566406 C-74.12005775 122.8129534 -67.47677962 111.86275483 -60.79394531 100.93603516 C-57.43701736 95.44196663 -54.09265682 89.94025831 -50.75 84.4375 C-50.39548767 83.8539978 -50.04097534 83.27049561 -49.67572021 82.66931152 C-43.70707746 72.84238082 -37.78384349 62.98867154 -31.87692261 53.12454224 C-25.54425732 42.55033727 -19.16290458 32.00654141 -12.74414062 21.484375 C-8.41128132 14.37008574 -4.17082908 7.21042105 0 0 Z " fill="#8C8C8C" transform="translate(249,95)"/>
<path d="M0 0 C0.33 32.67 0.66 65.34 1 99 C-4.13809022 98.14365163 -6.01565188 97.7079841 -10.140625 95.1484375 C-11.11555908 94.55200439 -12.09049316 93.95557129 -13.0949707 93.34106445 C-14.13613037 92.69226318 -15.17729004 92.04346191 -16.25 91.375 C-18.49748127 89.99925099 -20.74602964 88.62541046 -22.99609375 87.25390625 C-23.57268234 86.90126205 -24.14927094 86.54861786 -24.74333191 86.18528748 C-30.86816478 82.44827359 -37.08550257 78.87614311 -43.3125 75.3125 C-52.64917337 69.95419992 -61.92397874 64.50858434 -71.1328125 58.93359375 C-74.63288873 56.81527799 -78.15097953 54.73041923 -81.6796875 52.66015625 C-82.61119629 52.11061279 -83.54270508 51.56106934 -84.50244141 50.99487305 C-86.30082464 49.93460356 -88.10247448 48.87985062 -89.90771484 47.83129883 C-90.7064502 47.35845459 -91.50518555 46.88561035 -92.328125 46.3984375 C-93.0387207 45.98255371 -93.74931641 45.56666992 -94.48144531 45.13818359 C-94.98256836 44.76258301 -95.48369141 44.38698242 -96 44 C-96 43.34 -96 42.68 -96 42 C-91.29138927 39.8617903 -86.57040403 37.81210157 -81.75 35.9375 C-78.26140159 34.56141187 -75.18930401 32.98254033 -72 31 C-68.86175677 29.58471384 -65.7109744 28.27704636 -62.50390625 27.02734375 C-58.07393005 25.29616434 -54.0485764 23.51668263 -50 21 C-46.86175677 19.58471384 -43.7109744 18.27704636 -40.50390625 17.02734375 C-36.07393005 15.29616434 -32.0485764 13.51668263 -28 11 C-24.86175677 9.58471384 -21.7109744 8.27704636 -18.50390625 7.02734375 C-14.07362821 5.29604639 -10.0567488 3.50563897 -6 1 C-3.85469245 0.32576048 -2.24230893 0 0 0 Z " fill="#3A3A3A" transform="translate(251,210)"/>
<path d="M0 0 C22.09302326 8.8372093 22.09302326 8.8372093 26.5625 11.5625 C29.24111086 13.14219358 31.90036573 14.13073224 34.81640625 15.18359375 C39.56101269 16.95751637 44.23409307 18.92322748 48.5625 21.5625 C51.24111086 23.14219358 53.90036573 24.13073224 56.81640625 25.18359375 C61.56101269 26.95751637 66.23409307 28.92322748 70.5625 31.5625 C73.18989864 33.1119915 75.87710198 34.08535204 78.7421875 35.109375 C82.21274285 36.47838299 85.49057137 38.1991971 88.80078125 39.9140625 C91.08476511 41.10407949 91.08476511 41.10407949 94 42 C94 42.66 94 43.32 94 44 C93.5052417 44.27972656 93.0104834 44.55945313 92.50073242 44.84765625 C77.97756891 53.07199466 63.60030276 61.53188691 49.25683594 70.06445312 C43.52495043 73.47092901 37.78377004 76.86166299 32.0402832 80.24853516 C27.29066452 83.05039258 22.54899038 85.86475961 17.81640625 88.6953125 C16.80167236 89.30028564 15.78693848 89.90525879 14.74145508 90.52856445 C12.7847493 91.69543372 10.83006977 92.86570921 8.87768555 94.03979492 C8.00539307 94.55904541 7.13310059 95.0782959 6.234375 95.61328125 C5.46319336 96.07516846 4.69201172 96.53705566 3.89746094 97.01293945 C2 98 2 98 0 98 C0 65.66 0 33.32 0 0 Z " fill="#151515" transform="translate(251,210)"/>
<path d="M0 0 C-1.26306476 2.6694199 -2.63134675 4.99115293 -4.43359375 7.328125 C-4.91175537 7.95444824 -5.38991699 8.58077148 -5.88256836 9.22607422 C-6.3956958 9.89396973 -6.90882324 10.56186523 -7.4375 11.25 C-11.57855212 16.70206351 -15.59183158 22.21068337 -19.4375 27.875 C-23.30543012 33.56863784 -27.26523326 39.18235075 -31.3125 44.75 C-35.94227676 51.12102484 -40.49780573 57.53818842 -45 64 C-49.96429147 71.12336427 -55.00388982 78.18540545 -60.10546875 85.2109375 C-64.13047625 90.7660326 -68.07726712 96.37232034 -72 102 C-76.71476209 108.75452401 -81.45248906 115.49142252 -86.25 122.1875 C-87.07371094 123.34668945 -87.07371094 123.34668945 -87.9140625 124.52929688 C-88.67589844 125.58793945 -88.67589844 125.58793945 -89.453125 126.66796875 C-89.89817383 127.28953857 -90.34322266 127.9111084 -90.80175781 128.55151367 C-92 130 -92 130 -94 131 C-94.20873283 121.19486844 -94.36854402 111.39026701 -94.46630955 101.58336449 C-94.51323909 97.02922353 -94.57686073 92.47660466 -94.67895508 87.92333984 C-94.77690899 83.52710714 -94.83058951 79.13233585 -94.85389519 74.73509598 C-94.87049726 73.05958671 -94.90292123 71.3841556 -94.95157051 69.70927048 C-95.31732201 56.59292563 -95.31732201 56.59292563 -92.10073853 52.7033844 C-89.78798534 51.13583443 -87.58796433 50.03738402 -85 49 C-83.72237793 48.20565552 -83.72237793 48.20565552 -82.41894531 47.39526367 C-81.38398926 46.78775269 -81.38398926 46.78775269 -80.328125 46.16796875 C-79.1064563 45.44830933 -79.1064563 45.44830933 -77.86010742 44.71411133 C-76.99877197 44.21032959 -76.13743652 43.70654785 -75.25 43.1875 C-73.85454956 42.367052 -73.85454956 42.367052 -72.4309082 41.5300293 C-69.28893073 39.6838449 -66.14456055 37.84178093 -63 36 C-61.19364158 34.94071844 -59.38746466 33.88112786 -57.58129883 32.82151794 C-51.97322866 29.53154486 -46.36396832 26.24360642 -40.75390625 22.95703125 C-32.68766658 18.23156182 -32.68766658 18.23156182 -24.625 13.5 C-23.97547363 13.11900146 -23.32594727 12.73800293 -22.65673828 12.34545898 C-19.32739258 10.38774903 -16.01401612 8.40662938 -12.71484375 6.3984375 C-11.66852783 5.76325195 -11.66852783 5.76325195 -10.60107422 5.11523438 C-9.27862299 4.31067722 -7.95848237 3.502305 -6.64111328 2.68945312 C-2.22115138 0 -2.22115138 0 0 0 Z " fill="#363636" transform="translate(345,272)"/>
<path d="M0 0 C0.66 0 1.32 0 2 0 C2.33 25.74 2.66 51.48 3 78 C1.68 77.67 0.36 77.34 -1 77 C-0.67 51.59 -0.34 26.18 0 0 Z " fill="#959595" transform="translate(249,327)"/>
<path d="M0 0 C-1.44253657 3.36591866 -3.33264727 5.51047079 -6 8 C-6 7.01 -6 6.02 -6 5 C-7.32 5.33 -8.64 5.66 -10 6 C-7.35570758 3.077361 -4.105808 0 0 0 Z " fill="#616161" transform="translate(345,272)"/>
</svg>
